<svg width="21" height="21" viewBox="0 0 21 21" fill="none" xmlns="http://www.w3.org/2000/svg">
<path d="M20.1056 19.0001L15.2159 14.1114C16.6331 12.41 17.3398 10.2276 17.189 8.0184C17.0382 5.80916 16.0414 3.74312 14.4061 2.25007C12.7708 0.757022 10.6228 -0.0480887 8.40899 0.00222365C6.19519 0.052536 4.086 0.954398 2.5202 2.5202C0.954398 4.086 0.052536 6.19519 0.00222365 8.40899C-0.0480887 10.6228 0.757022 12.7708 2.25007 14.4061C3.74312 16.0414 5.80916 17.0382 8.0184 17.189C10.2276 17.3398 12.41 16.6331 14.1114 15.2159L19.0001 20.1056C19.0727 20.1782 19.1589 20.2357 19.2537 20.275C19.3485 20.3143 19.4502 20.3345 19.5528 20.3345C19.6555 20.3345 19.7571 20.3143 19.852 20.275C19.9468 20.2357 20.033 20.1782 20.1056 20.1056C20.1782 20.033 20.2357 19.9468 20.275 19.852C20.3143 19.7571 20.3345 19.6555 20.3345 19.5528C20.3345 19.4502 20.3143 19.3485 20.275 19.2537C20.2357 19.1589 20.1782 19.0727 20.1056 19.0001ZM1.58409 8.61534C1.58409 7.22469 1.99646 5.86527 2.76906 4.70898C3.54167 3.5527 4.6398 2.65149 5.92459 2.11931C7.20939 1.58713 8.62314 1.44789 9.98706 1.71919C11.351 1.99049 12.6038 2.66015 13.5872 3.64349C14.5705 4.62683 15.2402 5.87968 15.5115 7.24361C15.7828 8.60754 15.6435 10.0213 15.1114 11.3061C14.5792 12.5909 13.678 13.689 12.5217 14.4616C11.3654 15.2342 10.006 15.6466 8.61534 15.6466C6.75117 15.6445 4.96394 14.9031 3.64577 13.5849C2.32761 12.2667 1.58615 10.4795 1.58409 8.61534Z" fill="white"/>
</svg>
