<svg width="16" height="22" viewBox="0 0 16 22" fill="none" xmlns="http://www.w3.org/2000/svg">
<path d="M8 1.57143C8.79113 1.57143 9.56448 1.80184 10.2223 2.23351C10.8801 2.66519 11.3928 3.27875 11.6955 3.9966C11.9983 4.71445 12.0775 5.50436 11.9231 6.26643C11.7688 7.02849 11.3878 7.7285 10.8284 8.27792C10.269 8.82734 9.55629 9.2015 8.78036 9.35309C8.00444 9.50467 7.20017 9.42687 6.46927 9.12953C5.73836 8.83218 5.11365 8.32865 4.67412 7.6826C4.2346 7.03655 4 6.277 4 5.5C4 4.45808 4.42143 3.45883 5.17157 2.72208C5.92172 1.98533 6.93913 1.57143 8 1.57143ZM8 0C6.89242 0 5.80972 0.322569 4.88881 0.926917C3.96789 1.53127 3.25013 2.39025 2.82627 3.39524C2.40242 4.40023 2.29153 5.5061 2.5076 6.573C2.72368 7.63989 3.25703 8.6199 4.0402 9.38909C4.82338 10.1583 5.8212 10.6821 6.90749 10.8943C7.99379 11.1065 9.11976 10.9976 10.143 10.5813C11.1663 10.1651 12.0409 9.46011 12.6562 8.55564C13.2716 7.65117 13.6 6.5878 13.6 5.5C13.6 4.04131 13.01 2.64236 11.9598 1.61091C10.9096 0.579463 9.48521 0 8 0ZM16 22H14.4V18.0714C14.4 17.0295 13.9786 16.0303 13.2284 15.2935C12.4783 14.5568 11.4609 14.1429 10.4 14.1429H5.6C4.53913 14.1429 3.52172 14.5568 2.77157 15.2935C2.02143 16.0303 1.6 17.0295 1.6 18.0714V22H0V18.0714C0 16.6127 0.589998 15.2138 1.6402 14.1823C2.69041 13.1509 4.11479 12.5714 5.6 12.5714H10.4C11.8852 12.5714 13.3096 13.1509 14.3598 14.1823C15.41 15.2138 16 16.6127 16 18.0714V22Z" fill="white"/>
</svg>
